<svg width="18" height="21" viewBox="0 0 18 21" fill="none" xmlns="http://www.w3.org/2000/svg">
<path d="M11.4749 2.52513C12.8417 3.89197 12.8417 6.10804 11.4749 7.47488C10.108 8.84172 7.89197 8.84172 6.52513 7.47488C5.15829 6.10804 5.15829 3.89197 6.52513 2.52513C7.89197 1.15829 10.108 1.15829 11.4749 2.52513Z" fill="#A8F358"/>
<path d="M11.4749 2.52513C12.8417 3.89197 12.8417 6.10804 11.4749 7.47488C10.108 8.84172 7.89197 8.84172 6.52513 7.47488C5.15829 6.10804 5.15829 3.89197 6.52513 2.52513C7.89197 1.15829 10.108 1.15829 11.4749 2.52513" stroke="#A8F358" stroke-width="1.5" stroke-linecap="round" stroke-linejoin="round"/>
<path d="M1 17.4998V18.4998C1 19.0518 1.448 19.4998 2 19.4998H16C16.552 19.4998 17 19.0518 17 18.4998V17.4998C17 14.4738 13.048 12.5078 9 12.5078C4.952 12.5078 1 14.4738 1 17.4998Z" fill="#A8F358" stroke="#A8F358" stroke-width="1.5" stroke-linecap="round" stroke-linejoin="round"/>
</svg>
