<svg width="20" height="20" viewBox="0 0 20 20" fill="none" xmlns="http://www.w3.org/2000/svg">
<path d="M13.392 1.61328C15.199 2.33928 16.785 3.65028 17.834 5.46828C18.862 7.24828 19.207 9.23028 18.963 11.1223" stroke="#A8F358" stroke-width="1.5" stroke-linecap="round" stroke-linejoin="round"/>
<path d="M15.56 17.1191C14.028 18.3211 12.099 19.0391 10 19.0391C7.945 19.0391 6.055 18.3471 4.539 17.1901" stroke="#A8F358" stroke-width="1.5" stroke-linecap="round" stroke-linejoin="round"/>
<path d="M6.607 1.61328C4.801 2.33928 3.215 3.65028 2.165 5.46828C1.137 7.24828 0.792001 9.23028 1.036 11.1223" stroke="#A8F358" stroke-width="1.5" stroke-linecap="round" stroke-linejoin="round"/>
<path d="M13.5335 6.50353C15.4861 8.45615 15.4861 11.622 13.5335 13.5746C11.5809 15.5272 8.41505 15.5272 6.46243 13.5746C4.50981 11.622 4.50981 8.45615 6.46243 6.50353C8.41505 4.55091 11.5809 4.55091 13.5335 6.50353Z" fill="#A8F358" stroke="#A8F358" stroke-width="1.5" stroke-linecap="round" stroke-linejoin="round"/>
</svg>
