<svg fill="none" height="24" viewBox="0 0 24 24" width="24" xmlns="http://www.w3.org/2000/svg">
    <path
        d="M9.66563 18.1875V18.6675C9.66563 18.9738 9.72596 19.2771 9.84318 19.5601C9.9604 19.8431 10.1322 20.1002 10.3488 20.3168C10.5654 20.5334 10.8225 20.7052 11.1055 20.8224C11.3885 20.9397 11.6918 21 11.9981 21H12C12.3064 21.0001 12.6099 20.9399 12.893 20.8227C13.1762 20.7056 13.4335 20.5338 13.6503 20.3172C13.867 20.1006 14.039 19.8435 14.1564 19.5604C14.2738 19.2773 14.3342 18.9739 14.3344 18.6675V18.1875"
        stroke="white" stroke-linecap="round" stroke-linejoin="round" stroke-width="1.5" />
    <path
        d="M17.5753 18.1875C18.0858 18.1875 18.5753 17.9847 18.9363 17.6238C19.2972 17.2628 19.5 16.7733 19.5 16.2628C19.4996 15.7228 19.2852 15.205 18.9037 14.8228L17.625 13.545V9.75C17.625 8.25816 17.0324 6.82742 15.9775 5.77252C14.9226 4.71763 13.4918 4.125 12 4.125C10.5082 4.125 9.07742 4.71763 8.02252 5.77252C6.96763 6.82742 6.375 8.25816 6.375 9.75V13.545L5.09625 14.8228C4.71483 15.205 4.50043 15.7228 4.5 16.2628V16.2628C4.5 16.7733 4.70278 17.2628 5.06373 17.6238C5.42468 17.9847 5.91423 18.1875 6.42469 18.1875H17.5753Z"
        stroke="white" stroke-linecap="round" stroke-linejoin="round" stroke-width="1.5" />
</svg>
