<svg fill="none" height="19" viewBox="0 0 22 19" width="22" xmlns="http://www.w3.org/2000/svg">
    <path
        d="M19.125 0.9H2.875C1.78422 0.9 0.9 1.78422 0.9 2.875V5.375C0.9 5.77418 1.22818 6.1 1.625 6.1H2.15V16C2.15 17.4361 3.31391 18.6 4.75 18.6H17.25C18.6861 18.6 19.85 17.4361 19.85 16V6.1H20.375C20.774 6.1 21.1 5.77398 21.1 5.375V2.875C21.1 1.78421 20.2154 0.9 19.125 0.9ZM18.4 16C18.4 16.6323 17.8823 17.15 17.25 17.15H4.75C4.11773 17.15 3.6 16.6323 3.6 16V6.1H18.4V16ZM19.65 4.65H2.35V2.875C2.35 2.58843 2.58843 2.35 2.875 2.35H19.125C19.4133 2.35 19.65 2.58823 19.65 2.875V4.65ZM7.875 9.85H14.125C14.524 9.85 14.85 9.52398 14.85 9.125C14.85 8.72602 14.524 8.4 14.125 8.4H7.875C7.47602 8.4 7.15 8.72602 7.15 9.125C7.15 9.52398 7.47602 9.85 7.875 9.85Z"
        fill="white" stroke="white" stroke-width="0.2" />
</svg>
