<svg fill="none" height="24" viewBox="0 0 24 24" width="24" xmlns="http://www.w3.org/2000/svg">
    <path
        d="M21.5999 11.9999C21.5999 12.6364 21.347 13.2469 20.897 13.697C20.4469 14.147 19.8364 14.3999 19.1999 14.3999C18.5634 14.3999 17.9529 14.147 17.5028 13.697C17.0528 13.2469 16.7999 12.6364 16.7999 11.9999C16.7999 11.3634 17.0528 10.7529 17.5028 10.3028C17.9529 9.85276 18.5634 9.5999 19.1999 9.5999C19.8364 9.5999 20.4469 9.85276 20.897 10.3028C21.347 10.7529 21.5999 11.3634 21.5999 11.9999ZM14.3999 11.9999C14.3999 12.6364 14.147 13.2469 13.697 13.697C13.2469 14.147 12.6364 14.3999 11.9999 14.3999C11.3634 14.3999 10.7529 14.147 10.3028 13.697C9.85276 13.2469 9.5999 12.6364 9.5999 11.9999C9.5999 11.3634 9.85276 10.7529 10.3028 10.3028C10.7529 9.85276 11.3634 9.5999 11.9999 9.5999C12.6364 9.5999 13.2469 9.85276 13.697 10.3028C14.147 10.7529 14.3999 11.3634 14.3999 11.9999ZM4.7999 14.3999C5.43642 14.3999 6.04687 14.147 6.49696 13.697C6.94705 13.2469 7.1999 12.6364 7.1999 11.9999C7.1999 11.3634 6.94705 10.7529 6.49696 10.3028C6.04687 9.85276 5.43642 9.5999 4.7999 9.5999C4.16338 9.5999 3.55293 9.85276 3.10285 10.3028C2.65276 10.7529 2.3999 11.3634 2.3999 11.9999C2.3999 12.6364 2.65276 13.2469 3.10285 13.697C3.55293 14.147 4.16338 14.3999 4.7999 14.3999Z"
        fill="white" />
</svg>
