<svg fill="none" height="20" viewBox="0 0 20 20" width="20" xmlns="http://www.w3.org/2000/svg">
    <mask style="mask-type:alpha" height="17" id="mask0_225_1317" maskUnits="userSpaceOnUse"
        width="18" x="1" y="1">
        <path
            d="M9.92565 1C14.2989 1 17.1031 3.83361 17.7388 7.94366C18.3306 7.97824 18.8 8.46749 18.8 9.06595V11.6155C18.8 12.2247 18.3136 12.7207 17.7066 12.7392L17.6966 12.7397C17.0086 17.5717 14.3599 17.9524 9.92565 17.9524C5.43249 17.9524 2.77262 17.5615 2.12835 12.5446L2.12853 12.7397L2.09338 12.7392C1.49828 12.721 1.01912 12.2439 1.00056 11.6512L1 11.6155V9.06595C1 8.44507 1.50526 7.94174 2.12853 7.94174L2.11283 7.9418C2.74903 3.83276 5.55312 1 9.92565 1ZM12.9907 5.25034C11.9775 5.0906 12.6837 6.36721 9.9513 6.36721C7.21894 6.36721 7.92506 5.0906 6.91193 5.25034C6.69077 5.28521 6.1227 5.41386 5.20772 5.63629C4.40252 5.83191 3.79421 6.49038 3.66522 7.30594C3.49569 8.37838 3.41095 9.45083 3.41095 10.5233C3.41095 11.6463 3.50388 12.7694 3.68968 13.8924C3.82095 14.6859 4.40652 15.3292 5.18642 15.5368C6.43713 15.8695 8.02544 16.0358 9.9513 16.0358C11.8765 16.0358 13.4644 15.8696 14.715 15.5374C15.4951 15.3302 16.0811 14.687 16.2126 13.8935L16.2446 13.6953C16.4093 12.6379 16.4917 11.5806 16.4917 10.5233C16.4917 9.45083 16.4069 8.37838 16.2374 7.30594C16.1084 6.49038 15.5001 5.83191 14.6949 5.63625C13.7799 5.41386 13.2118 5.28521 12.9907 5.25034Z"
            fill="#A8F358" />
    </mask>
    <g mask="url(#mask0_225_1317)">
        <path
            d="M9.92565 1C14.2989 1 17.1031 3.83361 17.7388 7.94366C18.3306 7.97824 18.8 8.46749 18.8 9.06595V11.6155C18.8 12.2247 18.3136 12.7207 17.7066 12.7392L17.6966 12.7397C17.0086 17.5717 14.3599 17.9524 9.92565 17.9524C5.43249 17.9524 2.77262 17.5615 2.12835 12.5446L2.12853 12.7397L2.09338 12.7392C1.49828 12.721 1.01912 12.2439 1.00056 11.6512L1 11.6155V9.06595C1 8.44507 1.50526 7.94174 2.12853 7.94174L2.11283 7.9418C2.74903 3.83276 5.55312 1 9.92565 1ZM12.9907 5.25034C11.9775 5.0906 12.6837 6.36721 9.9513 6.36721C7.21894 6.36721 7.92506 5.0906 6.91193 5.25034C6.69077 5.28521 6.1227 5.41386 5.20772 5.63629C4.40252 5.83191 3.79421 6.49038 3.66522 7.30594C3.49569 8.37838 3.41095 9.45083 3.41095 10.5233C3.41095 11.6463 3.50388 12.7694 3.68968 13.8924C3.82095 14.6859 4.40652 15.3292 5.18642 15.5368C6.43713 15.8695 8.02544 16.0358 9.9513 16.0358C11.8765 16.0358 13.4644 15.8696 14.715 15.5374C15.4951 15.3302 16.0811 14.687 16.2126 13.8935L16.2446 13.6953C16.4093 12.6379 16.4917 11.5806 16.4917 10.5233C16.4917 9.45083 16.4069 8.37838 16.2374 7.30594C16.1084 6.49038 15.5001 5.83191 14.6949 5.63625C13.7799 5.41386 13.2118 5.28521 12.9907 5.25034Z"
            fill="white" />
    </g>
</svg>
