<svg fill="none" height="20" viewBox="0 0 21 20" width="21" xmlns="http://www.w3.org/2000/svg">
    <mask style="mask-type:alpha" height="20" id="mask0_167_2972" maskUnits="userSpaceOnUse"
        width="21" x="0" y="0">
        <path
            d="M10.5303 0C15.6896 0 18.9981 3.34302 19.748 8.19195C20.4462 8.23275 21 8.80995 21 9.516V12.5239C21 13.2426 20.4262 13.8278 19.7101 13.8496L19.6982 13.8502C18.8865 19.5509 15.7616 20 10.5303 20C5.22934 20 2.09129 19.5389 1.3312 13.62L1.33141 13.8502L1.28994 13.8496C0.587853 13.8282 0.0225571 13.2653 0.000658583 12.566L0 12.5239V9.516C0 8.7835 0.596094 8.18969 1.33141 8.18969L1.31289 8.18976C2.06346 3.34201 5.37165 0 10.5303 0ZM14.1463 5.01444C12.951 4.82598 13.7841 6.3321 10.5605 6.3321C7.33694 6.3321 8.17 4.82598 6.97475 5.01444C6.71383 5.05558 6.04363 5.20736 4.96416 5.46978C4.01421 5.70056 3.29654 6.47741 3.14435 7.43958C2.94435 8.70483 2.84438 9.97008 2.84438 11.2353C2.84438 12.5603 2.95401 13.8852 3.17322 15.2101C3.32808 16.1462 4.01893 16.9052 4.93904 17.1501C6.41459 17.5427 8.28843 17.7389 10.5605 17.7389C12.8318 17.7389 14.7052 17.5428 16.1806 17.1509C17.101 16.9064 17.7923 16.1476 17.9475 15.2114L17.9851 14.9775C18.1795 13.7301 18.2767 12.4827 18.2767 11.2353C18.2767 9.97008 18.1767 8.70483 17.9767 7.43958C17.8245 6.47741 17.1068 5.70056 16.1569 5.46973C15.0774 5.20736 14.4072 5.05558 14.1463 5.01444Z"
            fill="#A8F358" />
    </mask>
    <g mask="url(#mask0_167_2972)">
        <path
            d="M10.5303 0C15.6896 0 18.9981 3.34302 19.748 8.19195C20.4462 8.23275 21 8.80995 21 9.516V12.5239C21 13.2426 20.4262 13.8278 19.7101 13.8496L19.6982 13.8502C18.8865 19.5509 15.7616 20 10.5303 20C5.22934 20 2.09129 19.5389 1.3312 13.62L1.33141 13.8502L1.28994 13.8496C0.587853 13.8282 0.0225571 13.2653 0.000658583 12.566L0 12.5239V9.516C0 8.7835 0.596094 8.18969 1.33141 8.18969L1.31289 8.18976C2.06346 3.34201 5.37165 0 10.5303 0ZM14.1463 5.01444C12.951 4.82598 13.7841 6.3321 10.5605 6.3321C7.33694 6.3321 8.17 4.82598 6.97475 5.01444C6.71383 5.05558 6.04363 5.20736 4.96416 5.46978C4.01421 5.70056 3.29654 6.47741 3.14435 7.43958C2.94435 8.70483 2.84438 9.97008 2.84438 11.2353C2.84438 12.5603 2.95401 13.8852 3.17322 15.2101C3.32808 16.1462 4.01893 16.9052 4.93904 17.1501C6.41459 17.5427 8.28843 17.7389 10.5605 17.7389C12.8318 17.7389 14.7052 17.5428 16.1806 17.1509C17.101 16.9064 17.7923 16.1476 17.9475 15.2114L17.9851 14.9775C18.1795 13.7301 18.2767 12.4827 18.2767 11.2353C18.2767 9.97008 18.1767 8.70483 17.9767 7.43958C17.8245 6.47741 17.1068 5.70056 16.1569 5.46973C15.0774 5.20736 14.4072 5.05558 14.1463 5.01444Z"
            fill="#0A0A0A" />
    </g>
</svg>
