<svg fill="none" height="24" viewBox="0 0 24 24" width="24" xmlns="http://www.w3.org/2000/svg">
    <path
        d="M10.75 2.45031C11.44 1.86031 12.57 1.86031 13.27 2.45031L14.85 3.81031C15.15 4.07031 15.71 4.28031 16.11 4.28031H17.81C18.87 4.28031 19.74 5.15031 19.74 6.21031V7.91031C19.74 8.30031 19.95 8.87031 20.21 9.17031L21.57 10.7503C22.16 11.4403 22.16 12.5703 21.57 13.2703L20.21 14.8503C19.95 15.1503 19.74 15.7103 19.74 16.1103V17.8103C19.74 18.8703 18.87 19.7403 17.81 19.7403H16.11C15.72 19.7403 15.15 19.9503 14.85 20.2103L13.27 21.5703C12.58 22.1603 11.45 22.1603 10.75 21.5703L9.17 20.2103C8.87 19.9503 8.31 19.7403 7.91 19.7403H6.18C5.12 19.7403 4.25 18.8703 4.25 17.8103V16.1003C4.25 15.7103 4.04 15.1503 3.79 14.8503L2.44 13.2603C1.86 12.5703 1.86 11.4503 2.44 10.7603L3.79 9.17031C4.04 8.87031 4.25 8.31031 4.25 7.92031V6.20031C4.25 5.14031 5.12 4.27031 6.18 4.27031H7.91C8.3 4.27031 8.87 4.06031 9.17 3.80031L10.75 2.45031Z"
        fill="#A8F358" />
    <path
        d="M10.79 15.1693C10.59 15.1693 10.4 15.0893 10.26 14.9493L7.84 12.5293C7.55 12.2393 7.55 11.7593 7.84 11.4693C8.13 11.1793 8.61 11.1793 8.9 11.4693L10.79 13.3593L15.09 9.0593C15.38 8.7693 15.86 8.7693 16.15 9.0593C16.44 9.3493 16.44 9.8293 16.15 10.1193L11.32 14.9493C11.18 15.0893 10.99 15.1693 10.79 15.1693Z"
        fill="#0A0A0A" />
</svg>
