<svg fill="none" height="40" viewBox="0 0 40 40" width="40" xmlns="http://www.w3.org/2000/svg">
    <path
        d="M35 15.0003V30.0003C35 31.842 33.5083 33.3337 31.6667 33.3337H8.33333C6.49167 33.3337 5 31.842 5 30.0003V15.0003C5 13.1587 6.49167 11.667 8.33333 11.667H11.6667L14.1033 7.49366C14.4017 6.98199 14.95 6.66699 15.5433 6.66699H24.3833C24.9683 6.66699 25.51 6.97366 25.8117 7.47366L28.3333 11.667H31.6667C33.5083 11.667 35 13.1587 35 15.0003Z"
        stroke="white" stroke-linecap="round" stroke-linejoin="round" stroke-width="2" />
    <path
        d="M23.5355 17.4645C25.4882 19.4171 25.4882 22.5829 23.5355 24.5355C21.5829 26.4882 18.4171 26.4882 16.4645 24.5355C14.5118 22.5829 14.5118 19.4171 16.4645 17.4645C18.4171 15.5118 21.5829 15.5118 23.5355 17.4645"
        stroke="white" stroke-linecap="round" stroke-linejoin="round" stroke-width="2" />
</svg>
