<svg fill="none" height="40" viewBox="0 0 40 40" width="40" xmlns="http://www.w3.org/2000/svg">
    <rect fill="#373737" height="40" rx="12" width="40" />
    <mask style="mask-type:alpha" height="20" id="mask0_513_4517" maskUnits="userSpaceOnUse"
        width="21" x="10" y="10">
        <path
            d="M20.4899 10C25.6295 10 28.9253 13.343 29.6723 18.192C30.3678 18.2328 30.9195 18.8099 30.9195 19.516V22.5239C30.9195 23.2426 30.3479 23.8278 29.6345 23.8496L29.6227 23.8502C28.8141 29.5509 25.7012 30 20.4899 30C15.2093 30 12.0833 29.5389 11.3261 23.62L11.3263 23.8502L11.285 23.8496C10.5856 23.8282 10.0225 23.2653 10.0007 22.566L10 22.5239V19.516C10 18.7835 10.5938 18.1897 11.3263 18.1897L11.3079 18.1898C12.0556 13.342 15.3511 10 20.4899 10ZM24.0921 15.0144C22.9014 14.826 23.7313 16.3321 20.5201 16.3321C17.3088 16.3321 18.1387 14.826 16.948 15.0144C16.6881 15.0556 16.0205 15.2074 14.9451 15.4698C13.9988 15.7006 13.2839 16.4774 13.1323 17.4396C12.9331 18.7048 12.8335 19.9701 12.8335 21.2353C12.8335 22.5603 12.9427 23.8852 13.1611 25.2101C13.3153 26.1462 14.0035 26.9052 14.9201 27.1501C16.39 27.5427 18.2567 27.7389 20.5201 27.7389C22.7827 27.7389 24.6488 27.5428 26.1186 27.1509C27.0355 26.9064 27.7241 26.1476 27.8787 25.2114L27.9162 24.9775C28.1098 23.7301 28.2066 22.4827 28.2066 21.2353C28.2066 19.9701 28.107 18.7048 27.9078 17.4396C27.7562 16.4774 27.0413 15.7006 26.095 15.4697C25.0196 15.2074 24.352 15.0556 24.0921 15.0144Z"
            fill="white" />
    </mask>
    <g mask="url(#mask0_513_4517)">
        <path
            d="M20.4899 10C25.6295 10 28.9253 13.343 29.6723 18.192C30.3678 18.2328 30.9195 18.8099 30.9195 19.516V22.5239C30.9195 23.2426 30.3479 23.8278 29.6345 23.8496L29.6227 23.8502C28.8141 29.5509 25.7012 30 20.4899 30C15.2093 30 12.0833 29.5389 11.3261 23.62L11.3263 23.8502L11.285 23.8496C10.5856 23.8282 10.0225 23.2653 10.0007 22.566L10 22.5239V19.516C10 18.7835 10.5938 18.1897 11.3263 18.1897L11.3079 18.1898C12.0556 13.342 15.3511 10 20.4899 10ZM24.0921 15.0144C22.9014 14.826 23.7313 16.3321 20.5201 16.3321C17.3088 16.3321 18.1387 14.826 16.948 15.0144C16.6881 15.0556 16.0205 15.2074 14.9451 15.4698C13.9988 15.7006 13.2839 16.4774 13.1323 17.4396C12.9331 18.7048 12.8335 19.9701 12.8335 21.2353C12.8335 22.5603 12.9427 23.8852 13.1611 25.2101C13.3153 26.1462 14.0035 26.9052 14.9201 27.1501C16.39 27.5427 18.2567 27.7389 20.5201 27.7389C22.7827 27.7389 24.6488 27.5428 26.1186 27.1509C27.0355 26.9064 27.7241 26.1476 27.8787 25.2114L27.9162 24.9775C28.1098 23.7301 28.2066 22.4827 28.2066 21.2353C28.2066 19.9701 28.107 18.7048 27.9078 17.4396C27.7562 16.4774 27.0413 15.7006 26.095 15.4697C25.0196 15.2074 24.352 15.0556 24.0921 15.0144Z"
            fill="white" />
    </g>
</svg>
