<svg fill="none" height="68" viewBox="0 0 219 68" width="219" xmlns="http://www.w3.org/2000/svg">
    <path
        d="M1.02022 1C0.718414 8.5234 3.67615 25.2485 17.9216 31.9617C24.5614 35.0907 37.0929 35.7552 47.1971 42.0894C55.0441 47.0085 58.2634 54.7248 58.364 56.5574C58.364 58.7759 59.2091 63.9072 62.5894 66.6851"
        stroke="#F78E1E" stroke-width="1.73617" />
    <path
        d="M66.5134 1C69.3303 5.34043 75.2659 14.8315 76.4731 18.0723C77.9822 22.1234 77.5206 28.6593 77.0767 29.9362C76.5938 31.3251 76.4731 32.8298 74.0586 35.7234C69.4946 41.1932 65.3062 47.1821 65.3062 47.8766"
        stroke="#4CD080" stroke-width="1.73617" />
    <path
        d="M150 1C149.1 2.77021 146.101 6.53191 140.401 8.96596C135.842 10.9132 125.104 9.62979 119.704 10.0723C114.305 10.5149 111.006 14.9404 110.106 16.2681C108.63 18.4446 108.099 19.8264 107.706 22.2426C106.806 27.7745 106.625 37.6214 108.006 41.4936C109.506 45.6979 109.506 53 109.506 53"
        stroke="#54B948" stroke-width="1.73617" />
    <path
        d="M123.555 1C123.555 2.54326 125.185 6.38213 130.497 8.23404C136.533 9.10213 142.267 9.68085 143.173 9.68085C144.078 9.68085 147.096 10.2596 147.096 10.2596"
        stroke="#F78E1F" stroke-width="1.73617" />
    <path
        d="M218.022 1.28906C212.489 8.81247 208.364 14.8891 199.008 25.5954C197.37 27.4693 195.386 28.1997 193.575 29.0678C190.086 30.7403 182.71 30.5146 179.088 31.0933C175.467 31.672 174.187 33.3762 173.656 34.5657C172.75 36.5912 172.75 38.3274 173.052 40.0635C173.201 40.9198 173.696 42.3205 174.259 43.2465C176.372 46.7188 180.597 51.3486 180.597 51.3486"
        stroke="#26BCD7" stroke-width="1.15745" />
    <path
        d="M178.484 53.0859C178.484 53.0859 178.822 55.5398 177.881 55.6902C176.07 55.9796 173.052 56.5583 173.052 58.2944"
        stroke="#26BCD7" stroke-width="1.15745" />
    <path d="M182.224 33.9875L187.656 36.9946L182.224 40.0017L182.224 33.9875Z" fill="#F78E1E" />
    <path d="M48.824 33.9875L54.2566 36.9946L48.824 40.0017L48.824 33.9875Z" fill="#F78E1E" />
    <path d="M152.89 30.2257L155.606 31.7292L152.89 33.2328L152.89 30.2257Z" fill="#FF3F3F" />
    <path d="M180.898 20.0983L185.124 19.5195V22.4131L180.898 22.9919V20.0983Z" fill="#FF3F3F" />
    <path d="M140.457 17.6864L144.078 17.2041V19.6154L140.457 20.0977V17.6864Z" fill="#26BCD6" />
    <path d="M98.2026 7.84848L101.221 7.36621V9.77756L98.2026 10.2598V7.84848Z" fill="#C4C4C4" />
    <path d="M14.9033 39.6786L18.525 39.1963V41.6076L14.9033 42.0899V39.6786Z" fill="#FF3F3F" />
    <ellipse cx="172.749" cy="13.4423" fill="#26BCD7" rx="0.905428" ry="0.868085" />
    <ellipse cx="168.524" cy="43.5367" fill="#54B948" rx="1.50905" ry="1.44681" />
    <rect fill="#26BCD6" height="2.31489" width="2.41448" x="86.1309" y="3.31445" />
    <ellipse cx="59.5705" cy="7.94553" fill="#26BCD7" rx="1.20724" ry="1.15745" />
    <path
        d="M46.2914 22.9922C46.0902 23.8603 45.9896 25.9823 47.4987 26.4645C48.4041 26.7539 52.3276 27.0433 52.9312 29.6475"
        stroke="#FFD2A6" stroke-width="0.578723" />
    <path
        d="M122.65 18.0723C122.65 18.0723 122.65 20.3872 121.443 20.6765C120.235 20.9659 119.177 20.7382 118.123 21.2552C117.232 21.6918 116.614 22.4127 116.614 22.9914"
        stroke="#FFD2A6" stroke-width="0.578723" />
</svg>
