<svg width="87" height="83" viewBox="0 0 87 83" fill="none" xmlns="http://www.w3.org/2000/svg">
<path d="M43.5331 0C64.8626 0 78.5399 13.8735 81.6401 33.9966C84.5265 34.1659 86.8161 36.5613 86.8161 39.4914V51.9742C86.8161 54.9567 84.4439 57.3852 81.4833 57.4758L81.4342 57.4782C78.0787 81.1361 65.1601 83 43.5331 83C21.6186 83 8.6456 81.0862 5.50332 56.523L5.50419 57.4784L5.33275 57.4758C2.43024 57.387 0.0932534 55.0511 0.00272265 52.149L0 51.9742V39.4914C0 36.4515 2.46431 33.9872 5.50419 33.9872L5.4276 33.9875C8.53054 13.8694 22.2069 0 43.5331 0ZM58.4822 20.8099C53.5409 20.0278 56.9848 26.2782 43.6582 26.2782C30.3316 26.2782 33.7756 20.0278 28.8343 20.8099C27.7556 20.9807 24.985 21.6105 20.5223 22.6996C16.5951 23.6573 13.6282 26.8812 12.9991 30.8743C12.1723 36.125 11.759 41.3758 11.759 46.6266C11.759 52.1251 12.2122 57.6235 13.1184 63.122C13.7586 67.0069 16.6146 70.1567 20.4185 71.1731C26.5186 72.8022 34.2652 73.6165 43.6582 73.6165C53.0481 73.6165 60.7927 72.8027 66.8923 71.1763C70.6971 70.1617 73.555 67.0125 74.1966 63.1274L74.3523 62.1568C75.1558 56.9801 75.5575 51.8033 75.5575 46.6266C75.5575 41.3758 75.1442 36.125 74.3174 30.8743C73.6882 26.8812 70.7213 23.6573 66.7942 22.6994C62.3315 21.6105 59.5608 20.9807 58.4822 20.8099Z" fill="url(#paint0_linear_57_2734)"/>
<defs>
<linearGradient id="paint0_linear_57_2734" x1="13.0584" y1="9.32761" x2="47.7207" y2="87.2046" gradientUnits="userSpaceOnUse">
<stop stop-color="white"/>
<stop offset="1" stop-color="#C1C1C1"/>
</linearGradient>
</defs>
</svg>
