<svg fill="none" height="32" viewBox="0 0 33 32" width="33" xmlns="http://www.w3.org/2000/svg">
    <path
        d="M24.0126 13.7467V10.56C24.0126 6.2267 20.4577 2.69336 16.0979 2.69336C11.738 2.69336 8.18309 6.2267 8.18309 10.56V13.7467C5.82208 14.24 4.0379 16.3334 4.0379 18.8267V24.1467C4.0379 27.0267 6.38551 29.36 9.28312 29.36H22.926C25.8102 29.36 28.1578 27.0267 28.1578 24.1467V18.8267C28.1578 16.3334 26.3736 14.24 24.0126 13.7467ZM17.104 22.2667V24.24C17.104 24.7867 16.6479 25.24 16.0979 25.24C15.5479 25.24 15.0917 24.7867 15.0917 24.24V22.2667C14.2734 21.88 13.71 21.0667 13.71 20.12C13.71 18.8134 14.7832 17.7467 16.0979 17.7467C17.4125 17.7467 18.4857 18.8134 18.4857 20.12C18.4857 21.0667 17.9223 21.88 17.104 22.2667ZM10.1953 13.6267V10.56C10.1953 7.32003 12.838 4.69336 16.0979 4.69336C19.3577 4.69336 22.0004 7.32003 22.0004 10.56V13.6267H10.1953Z"
        fill="white" />
</svg>
