<svg fill="none" height="20" viewBox="0 0 20 20" width="20" xmlns="http://www.w3.org/2000/svg">
    <path
        d="M9.83331 17.6666C5.50688 17.6666 2 14.1597 2 9.83331C2 5.50688 5.50688 2 9.83331 2C14.1597 2 17.6666 5.50688 17.6666 9.83331C17.6666 14.1597 14.1597 17.6666 9.83331 17.6666Z"
        stroke="white" stroke-linecap="round" stroke-linejoin="round" stroke-width="1.5" />
    <path
        d="M8.14942 11.8305C8.3848 12.2164 8.78695 12.4823 9.27391 12.4823H9.72847H10.2707C10.9768 12.4823 11.5477 11.9105 11.5477 11.2053C11.5477 10.6193 11.1484 10.1094 10.5804 9.96555L8.87462 9.53671C8.30761 9.39472 7.90833 8.88489 7.90833 8.29882C7.90833 7.59268 8.4801 7.02186 9.18529 7.02186H9.72847H10.183C10.6681 7.02186 11.0702 7.28774 11.3047 7.67273"
        stroke="white" stroke-linecap="round" stroke-linejoin="round" stroke-width="1.5" />
</svg>
