<svg fill="none" height="22" viewBox="0 0 22 22" width="22" xmlns="http://www.w3.org/2000/svg">
    <path
        d="M10.8168 19.4335C6.05777 19.4335 2.2002 15.5759 2.2002 10.8168C2.2002 6.05777 6.05777 2.2002 10.8168 2.2002C15.5759 2.2002 19.4335 6.05777 19.4335 10.8168C19.4335 15.5759 15.5759 19.4335 10.8168 19.4335Z"
        stroke="white" stroke-linecap="round" stroke-linejoin="round" stroke-width="1.5" />
    <path
        d="M8.96443 13.0135C9.22335 13.438 9.66571 13.7305 10.2014 13.7305H10.7014H11.2978C12.0746 13.7305 12.7025 13.1015 12.7025 12.3258C12.7025 11.6812 12.2633 11.1203 11.6385 10.9621L9.76215 10.4903C9.13844 10.3341 8.69922 9.77333 8.69922 9.12866C8.69922 8.3519 9.32817 7.724 10.1039 7.724H10.7014H11.2014C11.735 7.724 12.1773 8.01646 12.4352 8.43995"
        stroke="white" stroke-linecap="round" stroke-linejoin="round" stroke-width="1.5" />
</svg>
