<svg fill="none" height="20" viewBox="0 0 21 20" width="21" xmlns="http://www.w3.org/2000/svg">
    <g clip-path="url(#clip0_437_5049)">
        <path
            d="M13.0773 2.60202H13.0773C13.4156 2.71375 13.7099 2.92813 13.9183 3.21478C14.1268 3.50144 14.2389 3.84583 14.2388 4.19915V4.24473C14.2387 4.68488 14.4126 5.10756 14.7233 5.42218C15.0339 5.7368 15.4566 5.91833 15.9007 5.92784L16.0001 5.92997C16.3093 5.93659 16.6107 6.02671 16.872 6.19059C17.1333 6.35448 17.3444 6.58593 17.4827 6.85997V6.85997C17.6422 7.17599 17.6972 7.53373 17.6401 7.88248C17.5829 8.23124 17.4164 8.55332 17.1642 8.80309L17.1317 8.83529C16.8174 9.14644 16.6388 9.56717 16.6339 10.0073C16.629 10.4474 16.7984 10.8719 17.1057 11.1898L17.1744 11.2609C17.3882 11.4822 17.5371 11.7571 17.6049 12.056C17.6727 12.355 17.6568 12.6666 17.559 12.9572V12.9572C17.4463 13.2924 17.2299 13.5839 16.9406 13.7905C16.6513 13.997 16.3037 14.1082 15.9471 14.1081H15.9011C15.4569 14.1079 15.0303 14.2802 14.7128 14.5881C14.3952 14.8959 14.212 15.3147 14.2024 15.7547L14.2003 15.8532C14.1936 16.1595 14.1027 16.4582 13.9373 16.7171C13.7719 16.9759 13.5383 17.1851 13.2617 17.3222V17.3222C12.9427 17.4802 12.5817 17.5347 12.2297 17.4781C11.8777 17.4214 11.5527 17.2565 11.3006 17.0066L11.2681 16.9743C10.954 16.663 10.5294 16.486 10.0852 16.4812C9.64101 16.4763 9.21257 16.6441 8.89174 16.9486L8.82 17.0166C8.59668 17.2286 8.31921 17.3761 8.01751 17.4432C7.71581 17.5104 7.40133 17.4947 7.10798 17.3978C6.76968 17.2861 6.47545 17.0717 6.26699 16.785C6.05852 16.4984 5.94639 16.154 5.94649 15.8007V15.7551C5.94661 15.315 5.7727 14.8923 5.46204 14.5777C5.15139 14.263 4.7287 14.0815 4.28457 14.072L4.18521 14.0699C3.87606 14.0632 3.5746 13.9731 3.31333 13.8092C3.05206 13.6454 2.8409 13.4139 2.70262 13.1399V13.1399C2.54314 12.8239 2.48808 12.4661 2.54523 12.1174C2.60238 11.7687 2.76885 11.4466 3.02105 11.1968L3.05359 11.1646C3.36779 10.8534 3.54647 10.4327 3.55134 9.99259C3.5562 9.55246 3.38687 9.12796 3.07962 8.81007L3.01086 8.73892C2.79699 8.51764 2.64813 8.24272 2.58035 7.94379C2.51256 7.64486 2.52841 7.33327 2.62619 7.04261V7.04261C2.73896 6.70742 2.95532 6.41589 3.24464 6.20934C3.53395 6.00278 3.88153 5.89168 4.23812 5.89178H4.2841C4.72833 5.8919 5.15493 5.71959 5.47246 5.41178C5.78999 5.10397 5.9732 4.68516 5.9828 4.24511L5.98495 4.14666C5.99163 3.84035 6.08257 3.54166 6.24797 3.2828C6.41337 3.02393 6.64695 2.81471 6.92352 2.67769C7.24247 2.51968 7.60351 2.46513 7.95549 2.52177C8.30748 2.57842 8.63254 2.74338 8.88462 2.99329L8.91711 3.02549C9.23114 3.33682 9.65577 3.51386 10.1 3.51868C10.5442 3.52349 10.9726 3.35569 11.2935 3.05125L11.3652 2.98319C11.5885 2.77125 11.866 2.62375 12.1677 2.55658C12.4694 2.48941 12.7839 2.50512 13.0773 2.60202V2.60202Z"
            stroke="white" stroke-linecap="round" stroke-linejoin="round" stroke-width="1.5" />
        <path
            d="M10.0926 12.0837C11.2538 12.0837 12.1952 11.1509 12.1952 10.0003C12.1952 8.84973 11.2538 7.91699 10.0926 7.91699C8.93135 7.91699 7.98997 8.84973 7.98997 10.0003C7.98997 11.1509 8.93135 12.0837 10.0926 12.0837Z"
            stroke="white" stroke-linecap="round" stroke-linejoin="round" stroke-width="1.5" />
    </g>
    <defs>
        <clipPath id="clip0_437_5049">
            <rect fill="white" height="20" width="20.1852" />
        </clipPath>
    </defs>
</svg>
